# xmcd CD database file
#
# Track frame offsets:
#	150
#	15006
#	25807
#	44975
#	57592
#	69521
#	84888
#	101543
#	119526
#	138461
#
# Disc length: 2112 seconds
#
# Revision: 0
# Processed by: cddbd v1.5.2PL0 Copyright (c) Steve Scherf et al.
# Submitted via: CDex 1.51
#
DISCID=82083e0a
DTITLE=Alauna - Chasing Dreams
DYEAR=2006
DGENRE=Country
TTITLE0=Alauna =Tornado Love
TTITLE1=Alauna =My Heart Is Soakin' Wet
TTITLE2=Alauna =Jesse Told Becky Goodbye
TTITLE3=Alauna =Not A Cryin' Like A Baby, Going Home To Mama, Kind-A-Girl
TTITLE4=Alauna =Joey
TTITLE5=Alauna =Show Me A Love
TTITLE6=Alauna =Believe Me ,I'm Missing You
TTITLE7=Alauna =No More Whiskey In My Soda
TTITLE8=Alauna =When Grandma Prays
TTITLE9=Alauna =You Alone Are Worthy
EXTD=YEAR: 2006
EXTT0=
EXTT1=
EXTT2=
EXTT3=
EXTT4=
EXTT5=
EXTT6=
EXTT7=
EXTT8=
EXTT9=
PLAYORDER=
